<?xml version="1.0" standalone="no"?>
<!DOCTYPE svg PUBLIC "-//W3C//DTD SVG 20010904//EN"
 "http://www.w3.org/TR/2001/REC-SVG-20010904/DTD/svg10.dtd">
<svg version="1.0" xmlns="http://www.w3.org/2000/svg"
 width="512.000000pt" height="512.000000pt" viewBox="0 0 512.000000 512.000000"
 preserveAspectRatio="xMidYMid meet">

<g transform="translate(0.000000,512.000000) scale(0.100000,-0.100000)"
fill="#000000" stroke="none">
<path d="M2502 4261 c-54 -14 -108 -56 -131 -103 l-21 -44 0 -1556 0 -1555 23
-44 c15 -29 40 -54 71 -74 41 -25 58 -29 116 -29 58 0 75 4 116 29 31 20 56
45 71 74 l23 44 0 1557 0 1557 -23 44 c-41 78 -152 123 -245 100z"/>
</g>
</svg>
