<?xml version="1.0" standalone="no"?>
<!DOCTYPE svg PUBLIC "-//W3C//DTD SVG 20010904//EN"
 "http://www.w3.org/TR/2001/REC-SVG-20010904/DTD/svg10.dtd">
<svg version="1.0" xmlns="http://www.w3.org/2000/svg"
 width="512.000000pt" height="512.000000pt" viewBox="0 0 512.000000 512.000000"
 preserveAspectRatio="xMidYMid meet">

<g transform="translate(0.000000,512.000000) scale(0.100000,-0.100000)"
fill="#000000" stroke="none">
<path d="M640 4766 c-85 -19 -129 -35 -210 -77 -153 -79 -269 -198 -345 -354
-87 -179 -80 -21 -80 -1775 0 -1754 -7 -1596 80 -1775 98 -201 269 -346 495
-417 l75 -23 1905 0 1905 0 75 23 c227 72 398 216 495 417 86 177 79 61 83
1405 2 880 0 1215 -8 1270 -40 254 -207 480 -434 590 -185 89 -120 83 -1081
89 l-850 6 -69 34 c-60 29 -104 68 -321 282 -278 274 -305 293 -433 310 -108
14 -1216 9 -1282 -5z m2139 -1142 c282 -94 474 -360 474 -659 0 -302 -192
-567 -479 -661 -79 -26 -103 -29 -214 -29 -111 0 -135 3 -214 29 -223 73 -404
268 -462 496 -22 85 -22 245 0 330 64 254 273 457 531 516 97 22 262 12 364
-22z m-701 -1540 c337 -101 664 -97 1002 10 103 33 163 38 243 21 135 -28 260
-124 312 -237 47 -103 245 -740 245 -788 0 -75 -28 -139 -85 -197 -89 -89 -6
-83 -1235 -83 -1204 0 -1139 -4 -1224 71 -61 54 -88 108 -93 189 -5 61 2 86
107 415 62 193 126 376 142 407 78 147 261 247 423 231 28 -3 101 -21 163 -39z"/>
</g>
</svg>
